<?xml version="1.0" encoding="UTF-8" standalone="no"?>
<svg
   version="1.1"
   x="0px"
   y="0px"
   viewBox="0 0 99.000732 94.580002"
   xml:space="preserve"
   id="svg2"
   sodipodi:docname="noun-country-5986303.svg"
   width="99.000732"
   height="94.580002"
   inkscape:version="1.4.2 (f4327f4, 2025-05-13)"
   xmlns:inkscape="http://www.inkscape.org/namespaces/inkscape"
   xmlns:sodipodi="http://sodipodi.sourceforge.net/DTD/sodipodi-0.dtd"
   xmlns:xlink="http://www.w3.org/1999/xlink"
   xmlns="http://www.w3.org/2000/svg"
   xmlns:svg="http://www.w3.org/2000/svg"><defs
     id="defs2"><linearGradient
       id="linearGradient2"
       inkscape:collect="always"><stop
         style="stop-color:#62c05c;stop-opacity:1;"
         offset="0"
         id="stop2" /><stop
         style="stop-color:#7ceda3;stop-opacity:1;"
         offset="1"
         id="stop3" /></linearGradient><linearGradient
       inkscape:collect="always"
       xlink:href="#linearGradient2"
       id="linearGradient3"
       x1="0"
       y1="47.290001"
       x2="99.000732"
       y2="47.290001"
       gradientUnits="userSpaceOnUse"
       spreadMethod="repeat" /></defs><sodipodi:namedview
     id="namedview2"
     pagecolor="#ffffff"
     bordercolor="#000000"
     borderopacity="0.25"
     inkscape:showpageshadow="2"
     inkscape:pageopacity="0.0"
     inkscape:pagecheckerboard="0"
     inkscape:deskcolor="#d1d1d1"
     inkscape:zoom="2.3447661"
     inkscape:cx="29.214001"
     inkscape:cy="3.1986133"
     inkscape:window-width="1920"
     inkscape:window-height="1009"
     inkscape:window-x="-8"
     inkscape:window-y="-8"
     inkscape:window-maximized="1"
     inkscape:current-layer="svg2" /><path
     d="m 26.29,36.25 c -4.51,0 -8.18,3.67 -8.18,8.18 0,4.51 3.67,8.18 8.18,8.18 4.51,0 8.18,-3.67 8.18,-8.18 0,-4.51 -3.67,-8.18 -8.18,-8.18 z m 0,13.28 c -2.8,0 -5.09,-2.28 -5.09,-5.09 0,-2.81 2.28,-5.09 5.09,-5.09 2.81,0 5.09,2.28 5.09,5.09 0,2.81 -2.28,5.09 -5.09,5.09 z M 94.72,9.81 c -0.01,0 -0.01,0 0,0 C 91.9,6.66 87.76,4.86 83.36,4.85 v 0 C 79.82,4.85 76.45,6.02 73.8,8.12 65.96,2.8 56.83,0 47.3,0 34.67,0 22.79,4.92 13.86,13.85 4.93,22.78 0,34.66 0,47.29 0,59.92 4.92,71.8 13.85,80.73 c 8.93,8.93 20.81,13.85 33.44,13.85 12.63,0 24.51,-4.92 33.44,-13.85 8.93,-8.93 13.85,-20.81 13.85,-33.44 0,-3.96 -0.5,-7.91 -1.47,-11.73 1.29,-1.75 2.47,-3.46 3.43,-5.06 3.87,-6.48 3.11,-15.17 -1.82,-20.69 z M 47.29,3.09 c 2.56,0 5.08,0.22 7.55,0.64 -6.1,7.75 -11.2,13.01 -22.04,17.7 -4.81,2.08 -8.4,4.71 -11.25,8.26 -2.55,0.8 -4.85,2.25 -6.62,4.23 -1.43,1.6 -2.51,3.47 -3.23,5.47 C 9.17,39.6 6.61,39.38 3.93,38.72 7.93,18.44 25.85,3.09 47.29,3.09 Z M 36.83,53.02 c -1.97,3.28 -5,7.14 -7.94,10.87 -0.62,0.79 -1.23,1.56 -1.82,2.32 -0.21,0.27 -0.45,0.38 -0.79,0.38 -0.33,0 -0.58,-0.12 -0.78,-0.38 -0.59,-0.76 -1.21,-1.55 -1.84,-2.35 -2.93,-3.72 -5.96,-7.58 -7.91,-10.84 -0.37,-0.61 -0.68,-1.25 -0.95,-1.9 -0.02,-0.05 -0.04,-0.1 -0.06,-0.15 -1.21,-3.07 -1.34,-6.5 -0.45,-9.62 0.02,-0.05 0.03,-0.1 0.05,-0.15 0.58,-1.92 1.54,-3.72 2.89,-5.22 2.23,-2.5 5.53,-3.93 9.05,-3.93 v 0 c 3.52,0 6.83,1.43 9.06,3.93 v 0 c 4.06,4.53 4.68,11.7 1.49,17.04 z M 3.43,41.78 c 2.18,0.52 4.3,0.79 6.39,0.79 0.35,0 0.71,-0.01 1.06,-0.02 -0.48,2.93 -0.25,6 0.73,8.84 -2.2,2.98 -4.23,6.31 -6.18,10.1 -1.52,-4.46 -2.34,-9.23 -2.34,-14.2 0,-1.87 0.12,-3.7 0.34,-5.51 z m 3.53,23.59 c 1.94,-4.08 3.97,-7.62 6.14,-10.76 2.06,3.43 5.15,7.36 8.13,11.16 0.62,0.79 1.24,1.58 1.83,2.34 0.79,1.02 1.94,1.58 3.22,1.58 1.29,0 2.43,-0.56 3.23,-1.58 0.58,-0.75 1.19,-1.52 1.81,-2.31 1.29,-1.65 2.6,-3.31 3.84,-4.96 3.16,0.69 6.62,2.05 7.13,4.69 0.69,3.51 -3.78,9.03 -11.11,13.73 -2.81,1.5 -4.61,4.02 -5.88,6.36 C 17.26,80.99 10.8,73.9 6.96,65.37 Z m 21.09,21.71 c 1.41,-2.57 2.87,-4.17 4.64,-5.11 0.04,-0.02 0.08,-0.04 0.11,-0.07 3.94,-2.52 7.19,-5.31 9.41,-8.07 2.56,-3.19 3.64,-6.26 3.12,-8.89 -0.63,-3.21 -3.38,-5.48 -8.19,-6.79 0.86,-1.22 1.66,-2.41 2.34,-3.54 3.87,-6.47 3.1,-15.17 -1.83,-20.68 0,0 0,0 0,0 -2.78,-3.11 -6.85,-4.9 -11.18,-4.95 2.08,-1.87 4.55,-3.4 7.56,-4.7 12.02,-5.2 17.53,-11.27 24.18,-19.82 4.72,1.2 9.21,3.17 13.33,5.89 -3.86,4.71 -4.86,11.47 -2.76,17.25 -6.36,1.57 -13.91,3.93 -13.84,10.37 0.03,2.99 -1.65,3.54 -3.42,4.13 -0.52,0.17 -1.01,0.33 -1.43,0.56 -3.26,1.78 -4.24,4.74 -2.68,8.14 1.24,2.71 4.21,5.8 7.96,8.28 1.83,1.21 6.38,3.92 9.03,2.92 1.46,-0.54 2.64,-2.29 3.88,-4.14 0.53,-0.78 1.34,-1.99 1.9,-2.55 0.24,0.53 0.64,1.77 0.98,4.57 0.83,6.7 2.39,13.39 4.91,20.94 C 68.33,87.47 58.27,91.5 47.29,91.5 40.4,91.49 33.87,89.9 28.05,87.08 Z M 91.49,47.29 c 0,12.17 -4.94,23.21 -12.93,31.21 -2.19,-6.81 -3.58,-12.91 -4.33,-19.01 -0.61,-4.94 -1.54,-7.03 -3.32,-7.46 -2.1,-0.5 -3.6,1.73 -5.19,4.09 -0.7,1.03 -1.86,2.76 -2.4,2.97 -0.54,0.19 -2.95,-0.41 -6.34,-2.67 -3.24,-2.16 -5.84,-4.85 -6.79,-7.01 -0.82,-1.87 -0.41,-3.08 1.39,-4.06 0.18,-0.1 0.56,-0.22 0.92,-0.34 1.82,-0.6 5.59,-1.84 5.54,-7.09 -0.04,-4.02 5.35,-5.83 12.1,-7.48 0.01,0.02 0.02,0.04 0.03,0.06 2.07,3.45 5.17,7.4 8.17,11.22 0.61,0.78 1.21,1.54 1.79,2.29 0.79,1.02 1.94,1.58 3.23,1.58 1.29,0 2.44,-0.56 3.22,-1.58 0.57,-0.73 1.15,-1.47 1.75,-2.23 0.78,-0.99 1.57,-2 2.35,-3 0.53,2.8 0.81,5.65 0.81,8.51 z m 2.4,-18.38 c -1.98,3.3 -5.04,7.19 -8,10.96 -0.6,0.76 -1.19,1.51 -1.76,2.25 -0.2,0.26 -0.44,0.38 -0.78,0.38 -0.34,0 -0.58,-0.12 -0.79,-0.38 -0.58,-0.75 -1.19,-1.52 -1.8,-2.3 -2.94,-3.74 -5.98,-7.61 -7.95,-10.9 -3.2,-5.34 -2.58,-12.51 1.47,-17.03 2.24,-2.5 5.54,-3.93 9.06,-3.93 v 0 c 3.52,0 6.83,1.43 9.06,3.93 4.06,4.51 4.68,11.68 1.49,17.02 z M 83.35,12.15 c -4.51,0 -8.18,3.67 -8.18,8.18 0,4.51 3.67,8.18 8.18,8.18 4.51,0 8.18,-3.67 8.18,-8.18 0,-4.51 -3.67,-8.18 -8.18,-8.18 z m 0,13.26 c -2.81,0 -5.09,-2.28 -5.09,-5.09 0,-2.81 2.28,-5.09 5.09,-5.09 2.8,0 5.09,2.28 5.09,5.09 0,2.81 -2.28,5.09 -5.09,5.09 z"
     id="path1"
     style="fill:url(#linearGradient3)" /></svg>
