<?xml version="1.0" encoding="UTF-8" standalone="no"?>
<svg
   version="1.1"
   viewBox="-5 -10 93.678352 93.749702"
   id="svg5"
   sodipodi:docname="noun-phonebook-7749695.svg"
   width="93.678352"
   height="93.749702"
   inkscape:version="1.4.2 (f4327f4, 2025-05-13)"
   xmlns:inkscape="http://www.inkscape.org/namespaces/inkscape"
   xmlns:sodipodi="http://sodipodi.sourceforge.net/DTD/sodipodi-0.dtd"
   xmlns:xlink="http://www.w3.org/1999/xlink"
   xmlns="http://www.w3.org/2000/svg"
   xmlns:svg="http://www.w3.org/2000/svg">
  <defs
     id="defs5">
    <linearGradient
       id="linearGradient116"
       inkscape:collect="always">
      <stop
         style="stop-color:#7900f1;stop-opacity:1;"
         offset="0"
         id="stop116" />
      <stop
         style="stop-color:#6d00b1;stop-opacity:0.58484846;"
         offset="1"
         id="stop117" />
    </linearGradient>
    <linearGradient
       inkscape:collect="always"
       xlink:href="#linearGradient116"
       id="linearGradient117"
       x1="32.42835"
       y1="21.28395"
       x2="51.17835"
       y2="21.28395"
       gradientUnits="userSpaceOnUse" />
  </defs>
  <sodipodi:namedview
     id="namedview5"
     pagecolor="#ffffff"
     bordercolor="#000000"
     borderopacity="0.25"
     inkscape:showpageshadow="2"
     inkscape:pageopacity="0.0"
     inkscape:pagecheckerboard="0"
     inkscape:deskcolor="#d1d1d1"
     inkscape:zoom="6.1851852"
     inkscape:cx="46.967066"
     inkscape:cy="66.04491"
     inkscape:window-width="1920"
     inkscape:window-height="1094"
     inkscape:window-x="-11"
     inkscape:window-y="-11"
     inkscape:window-maximized="1"
     inkscape:current-layer="svg5" />
  <path
     id="path4"
     style="fill:url(#linearGradient117);fill-opacity:1"
     d="m 51.17835,19.6862 v 3.125 c 0,5.1719 -4.2031,9.375 -9.375,9.375 -5.1719,0 -9.375,-4.2031 -9.375,-9.375 v -3.125 c 0.4375,-12.406 18.312,-12.406 18.75,0 z m -25.02,23.137 c 0.69922,0.50781 1.6758,0.35156 2.1836,-0.34766 0.76562,-1.0586 1.6445,-2.0391 2.6094,-2.9219 0.92969,-0.82422 2.0781,-2.3516 3.3984,-1.2266 l 6.4219,5.625 c 0.58984,0.51562 1.4688,0.51562 2.0586,0 l 6.4258,-5.6289 c 0.59375,-0.52344 1.4922,-0.50781 2.082,0.02734 l 1.3125,1.2031 c 4.0273,3.6953 6.3359,8.9531 6.3359,14.426 v 14.141 h -26.562 c -2.0391,0.02344 -2.0625,3.0938 0,3.125 h 28.125 c 0.86328,0 1.5625,-0.69922 1.5625,-1.5625 v -15.703 c 0,-6.3477 -2.6797,-12.445 -7.3516,-16.73 l -1.3203,-1.207 c -1.7773,-1.6133 -4.4648,-1.6406 -6.25,-0.06641 l -5.3906,4.7227 -5.3867,-4.7188 c -1.7891,-1.5781 -4.4766,-1.5508 -6.2617,0.06641 -1.5469,1.3789 -3.1445,2.8945 -4.3398,4.5938 -0.50781,0.69922 -0.35156,1.6758 0.34766,2.1836 z m 53.145,-19.23 v 11.719 h 7.8125 c 0.85938,0 1.5625,0.70312 1.5625,1.5625 v 12.5 c 0,0.85938 -0.70312,1.5625 -1.5625,1.5625 h -7.8125 v 7.8125 h 7.8125 c 0.85938,0 1.5625,0.70312 1.5625,1.5625 v 12.5 c 0,0.85938 -0.70312,1.5625 -1.5625,1.5625 h -7.8125 v 7.8125 c 0,0.85938 -0.70312,1.5625 -1.5625,1.5625 h -68.75 c -0.85938,0 -1.5625,-0.70312 -1.5625,-1.5625 v -3.125 c 0.03125,-2.0625 3.0938,-2.0469 3.125,0 v 1.5625 h 65.625 v -6.25 h -7.8125 c -0.85938,0 -1.5625,-0.70312 -1.5625,-1.5625 v -12.5 c 0,-0.85938 0.70312,-1.5625 1.5625,-1.5625 h 7.8125 v -7.8125 h -7.8125 c -0.85938,0 -1.5625,-0.70312 -1.5625,-1.5625 v -12.5 c 0,-0.85938 0.70312,-1.5625 1.5625,-1.5625 h 7.8125 v -11.719 h -7.8125 c -0.85938,0 -1.5625,-0.70312 -1.5625,-1.5625 v -12.5 c 0,-0.85938 0.70312,-1.5625 1.5625,-1.5625 h 7.8125 v -8.5938 h -42.188 c -2.0625,-0.03125 -2.0469,-3.0938 0,-3.125 h 43.75 c 0.85938,0 1.5625,0.70312 1.5625,1.5625 v 10.156 h 7.8125 c 0.85938,0 1.5625,0.70312 1.5625,1.5625 v 12.5 c 0,0.85938 -0.70312,1.5625 -1.5625,1.5625 z m -70.281,-2.125 c -0.28125,3.3906 -0.42188,7 -0.42188,10.719 0,3.7812 0.42188,8.375 0.67188,10.781 0.125,1.0938 0.84375,2.0625 1.8906,2.5 0.70312,0.48438 6.7031,0.15625 7.5938,0.25 4.0938,0 7.4219,3.2969 7.4219,7.3594 v 13.938 c 0,4.0625 -3.3281,7.3594 -7.4219,7.3594 h -10.547 c -17.613,-0.64062 -17.613,-83.734 0,-84.375 h 10.547 c 4.0938,0 7.4219,3.2969 7.4219,7.3594 v 13.938 c 0,4.0625 -3.3281,7.3594 -7.4219,7.3594 -0.70312,0.0625 -7.1562,-0.17188 -7.6562,0.1875 -1.1719,0.40625 -1.9844,1.4375 -2.0781,2.625 z" />
</svg>
